<?xml version="1.0" standalone="no"?>
<!DOCTYPE
  svg
  PUBLIC "-//W3C//DTD SVG 1.1//EN" "http://www.w3.org/Graphics/SVG/1.1/DTD/svg11.dtd"
><svg
  t="1651002288375"
  class="icon"
  viewBox="0 0 1024 1024"
  version="1.1"
  xmlns="http://www.w3.org/2000/svg"
  p-id="1992"
  xmlns:xlink="http://www.w3.org/1999/xlink"
  width="200"
  height="200"
>
  <defs>
    <style type="text/css">
      @font-face {
        font-family: feedback-iconfont;
        src: url("//at.alicdn.com/t/font_1031158_u69w8yhxdu.woff2?t=1630033759944") format("woff2"), url("//at.alicdn.com/t/font_1031158_u69w8yhxdu.woff?t=1630033759944") format("woff"), url("//at.alicdn.com/t/font_1031158_u69w8yhxdu.ttf?t=1630033759944") format("truetype");
      }
    </style>
  </defs>
  <path
    d="M897.28 126.72a152.704 152.704 0 0 1 0 215.893333L386.645333 853.333333a96 96 0 0 1-42.666666 24.746667l-218.24 59.52a32 32 0 0 1-39.253334-39.296l59.477334-218.282667a96 96 0 0 1 24.746666-42.624L681.386667 126.72a152.661333 152.661333 0 0 1 215.936 0zM640 258.56L215.978667 682.666667a32 32 0 0 0-8.234667 14.208l-44.8 164.266666 164.266667-44.8A32 32 0 0 0 341.333333 807.978667L765.44 384 640 258.56z m86.613333-86.613333l-41.386666 41.386666 125.397333 125.44 41.386667-41.386666a88.661333 88.661333 0 1 0-125.397334-125.44z"
    fill="#5C44355e"
    p-id="1993"
  ></path>
</svg>