<svg width="32" height="32" viewBox="0 0 32 32" fill="none" xmlns="http://www.w3.org/2000/svg">
<path fill-rule="evenodd" clip-rule="evenodd" d="M19.5 13C19.5 14.933 17.933 16.5 16 16.5C14.067 16.5 12.5 14.933 12.5 13C12.5 11.067 14.067 9.5 16 9.5C17.933 9.5 19.5 11.067 19.5 13ZM21 13C21 15.7614 18.7614 18 16 18C13.2386 18 11 15.7614 11 13C11 10.2386 13.2386 8 16 8C18.7614 8 21 10.2386 21 13ZM11.0245 18.2903C11.1628 18.1835 11.3306 18.1198 11.5047 18.106C11.8254 18.0806 12.0103 18.0873 12.1342 18.1375C12.6729 18.356 12.2848 19.2661 11.857 19.6597C10.8792 20.5595 9.97248 21.9576 9.5891 22.9928H22.4899C22.1058 21.9557 21.1485 20.5541 20.1472 19.6546C19.7147 19.266 19.3269 18.3557 19.8659 18.1375C19.9897 18.0874 20.1746 18.0808 20.495 18.1063C20.6691 18.1202 20.8368 18.1839 20.975 18.2906C22.5963 19.5427 23.7152 21.3928 23.9862 23.502C24.0566 24.0498 23.6022 24.4998 23.0499 24.4998H8.94919C8.39691 24.4998 7.94244 24.0498 8.01283 23.502C8.2839 21.3927 9.40298 19.5424 11.0245 18.2903Z" fill="#5C4435"/>
</svg>
