<svg width="42" height="38" viewBox="0 0 42 38" fill="none" xmlns="http://www.w3.org/2000/svg">
<path fill-rule="evenodd" clip-rule="evenodd" d="M28.5 18C28.5 21.5899 25.5899 24.5 22 24.5C18.4101 24.5 15.5 21.5899 15.5 18C15.5 14.4101 18.4101 11.5 22 11.5C25.5899 11.5 28.5 14.4101 28.5 18ZM30 18C30 22.4183 26.4183 26 22 26C20.0609 26 18.283 25.3101 16.8982 24.1624L13.5303 27.5303C13.2374 27.8232 12.7626 27.8232 12.4697 27.5303C12.1768 27.2374 12.1768 26.7626 12.4697 26.4697L15.8376 23.1018C14.6899 21.717 14 19.9391 14 18C14 13.5817 17.5817 10 22 10C26.4183 10 30 13.5817 30 18Z" fill="#5C4435"/>
</svg>
