<svg width="1091" height="205" viewBox="0 0 1091 205" fill="none" xmlns="http://www.w3.org/2000/svg">
<path d="M209.705 134C208.86 134 208.145 133.74 207.56 133.22C207.04 132.635 206.78 131.92 206.78 131.075V60.7775C206.78 59.8675 207.04 59.1525 207.56 58.6325C208.145 58.1125 208.86 57.8525 209.705 57.8525H227.255C232.845 57.8525 237.948 58.795 242.563 60.68C247.243 62.5 251.273 65.1325 254.653 68.5775C258.098 71.9575 260.73 75.955 262.55 80.57C264.435 85.185 265.378 90.2875 265.378 95.8775C265.378 101.467 264.435 106.602 262.55 111.282C260.73 115.897 258.098 119.927 254.653 123.372C251.273 126.752 247.243 129.385 242.563 131.27C237.948 133.09 232.845 134 227.255 134H209.705ZM212.63 128.735H227.255C233.56 128.735 239.118 127.305 243.928 124.445C248.803 121.585 252.605 117.685 255.335 112.745C258.13 107.805 259.528 102.182 259.528 95.8775C259.528 89.5725 258.13 83.9825 255.335 79.1075C252.605 74.1675 248.803 70.2675 243.928 67.4075C239.118 64.5475 233.56 63.1175 227.255 63.1175H212.63V128.735ZM287.778 134C286.933 134 286.218 133.74 285.633 133.22C285.113 132.635 284.853 131.92 284.853 131.075V83.5925C284.853 82.6825 285.113 81.9675 285.633 81.4475C286.218 80.9275 286.933 80.6675 287.778 80.6675C288.688 80.6675 289.403 80.9275 289.923 81.4475C290.443 81.9675 290.703 82.6825 290.703 83.5925V131.075C290.703 131.92 290.443 132.635 289.923 133.22C289.403 133.74 288.688 134 287.778 134ZM287.68 69.455C286.445 69.455 285.373 69.0325 284.463 68.1875C283.618 67.2775 283.195 66.1725 283.195 64.8725C283.195 63.3775 283.65 62.2725 284.56 61.5575C285.535 60.7775 286.608 60.3875 287.778 60.3875C288.883 60.3875 289.89 60.7775 290.8 61.5575C291.775 62.2725 292.263 63.3775 292.263 64.8725C292.263 66.1725 291.808 67.2775 290.898 68.1875C290.053 69.0325 288.98 69.455 287.68 69.455ZM337.529 134.585C332.329 134.585 327.649 133.415 323.489 131.075C319.394 128.67 316.144 125.42 313.739 121.325C311.399 117.165 310.229 112.517 310.229 107.382C310.229 102.182 311.399 97.535 313.739 93.44C316.144 89.28 319.394 86.03 323.489 83.69C327.649 81.285 332.329 80.0825 337.529 80.0825C342.729 80.0825 347.377 81.285 351.472 83.69C355.567 86.03 358.784 89.28 361.124 93.44C363.529 97.535 364.732 102.182 364.732 107.382L362.294 111.282C362.294 115.702 361.189 119.667 358.979 123.177C356.834 126.687 353.909 129.482 350.204 131.562C346.499 133.577 342.274 134.585 337.529 134.585ZM337.529 129.125C341.624 129.125 345.264 128.182 348.449 126.297C351.699 124.347 354.234 121.747 356.054 118.497C357.939 115.182 358.882 111.477 358.882 107.382C358.882 103.222 357.939 99.5175 356.054 96.2675C354.234 92.9525 351.699 90.3525 348.449 88.4675C345.264 86.5175 341.624 85.5425 337.529 85.5425C333.499 85.5425 329.859 86.5175 326.609 88.4675C323.359 90.3525 320.792 92.9525 318.907 96.2675C317.022 99.5175 316.079 103.222 316.079 107.382C316.079 111.477 317.022 115.182 318.907 118.497C320.792 121.747 323.359 124.347 326.609 126.297C329.859 128.182 333.499 129.125 337.529 129.125ZM361.807 134C360.962 134 360.247 133.74 359.662 133.22C359.142 132.635 358.882 131.92 358.882 131.075V113.232L360.734 107.382H364.732V131.075C364.732 131.92 364.472 132.635 363.952 133.22C363.432 133.74 362.717 134 361.807 134ZM409.456 134.585C404.386 134.585 399.804 133.415 395.709 131.075C391.614 128.735 388.364 125.55 385.959 121.52C383.619 117.49 382.384 112.94 382.254 107.87V60.7775C382.254 59.8675 382.514 59.1525 383.034 58.6325C383.619 58.1125 384.334 57.8525 385.179 57.8525C386.089 57.8525 386.804 58.1125 387.324 58.6325C387.844 59.1525 388.104 59.8675 388.104 60.7775V91.1975C390.184 87.8175 393.076 85.12 396.781 83.105C400.551 81.09 404.776 80.0825 409.456 80.0825C414.656 80.0825 419.304 81.285 423.399 83.69C427.559 86.03 430.809 89.2475 433.149 93.3425C435.554 97.4375 436.756 102.085 436.756 107.285C436.756 112.485 435.554 117.165 433.149 121.325C430.809 125.42 427.559 128.67 423.399 131.075C419.304 133.415 414.656 134.585 409.456 134.585ZM409.456 129.125C413.551 129.125 417.191 128.182 420.376 126.297C423.626 124.347 426.194 121.747 428.079 118.497C429.964 115.182 430.906 111.445 430.906 107.285C430.906 103.125 429.964 99.42 428.079 96.17C426.194 92.92 423.626 90.3525 420.376 88.4675C417.191 86.5175 413.551 85.5425 409.456 85.5425C405.426 85.5425 401.786 86.5175 398.536 88.4675C395.286 90.3525 392.719 92.92 390.834 96.17C389.014 99.42 388.104 103.125 388.104 107.285C388.104 111.445 389.014 115.182 390.834 118.497C392.719 121.747 395.286 124.347 398.536 126.297C401.786 128.182 405.426 129.125 409.456 129.125ZM477.9 134.488C472.765 134.488 468.182 133.35 464.152 131.075C460.187 128.735 457.067 125.517 454.792 121.422C452.517 117.327 451.38 112.647 451.38 107.382C451.38 102.052 452.452 97.3725 454.597 93.3425C456.742 89.2475 459.7 86.03 463.47 83.69C467.24 81.35 471.562 80.18 476.437 80.18C481.247 80.18 485.505 81.3175 489.21 83.5925C492.915 85.8025 495.807 88.89 497.887 92.855C499.967 96.755 501.007 101.272 501.007 106.407C501.007 107.252 500.747 107.935 500.227 108.455C499.707 108.91 499.025 109.137 498.18 109.137H455.28V104.067H499.74L495.45 107.285C495.58 103.06 494.865 99.3225 493.305 96.0725C491.745 92.8225 489.502 90.2875 486.577 88.4675C483.717 86.5825 480.337 85.64 476.437 85.64C472.732 85.64 469.417 86.5825 466.492 88.4675C463.632 90.2875 461.357 92.8225 459.667 96.0725C458.042 99.3225 457.23 103.092 457.23 107.382C457.23 111.607 458.107 115.345 459.862 118.595C461.617 121.845 464.055 124.412 467.175 126.297C470.295 128.117 473.87 129.027 477.9 129.027C480.435 129.027 482.97 128.605 485.505 127.76C488.105 126.85 490.152 125.68 491.647 124.25C492.167 123.73 492.785 123.47 493.5 123.47C494.28 123.405 494.93 123.6 495.45 124.055C496.165 124.64 496.522 125.29 496.522 126.005C496.587 126.72 496.295 127.37 495.645 127.955C493.565 129.84 490.835 131.4 487.455 132.635C484.14 133.87 480.955 134.488 477.9 134.488ZM538.484 134C534.909 133.935 531.724 133.122 528.929 131.562C526.134 129.937 523.956 127.727 522.396 124.932C520.836 122.072 520.056 118.855 520.056 115.28V66.725C520.056 65.815 520.316 65.1 520.836 64.58C521.421 63.995 522.136 63.7025 522.981 63.7025C523.891 63.7025 524.606 63.995 525.126 64.58C525.711 65.1 526.004 65.815 526.004 66.725V115.28C526.004 119.05 527.174 122.137 529.514 124.542C531.854 126.882 534.876 128.052 538.581 128.052H540.726C541.636 128.052 542.351 128.345 542.871 128.93C543.456 129.45 543.749 130.165 543.749 131.075C543.749 131.92 543.456 132.635 542.871 133.22C542.351 133.74 541.636 134 540.726 134H538.484ZM512.451 87.8825C511.671 87.8825 511.021 87.655 510.501 87.2C510.046 86.68 509.819 86.03 509.819 85.25C509.819 84.47 510.046 83.8525 510.501 83.3975C511.021 82.8775 511.671 82.6175 512.451 82.6175H538.874C539.654 82.6175 540.271 82.8775 540.726 83.3975C541.246 83.8525 541.506 84.47 541.506 85.25C541.506 86.03 541.246 86.68 540.726 87.2C540.271 87.655 539.654 87.8825 538.874 87.8825H512.451ZM582.487 134.488C577.352 134.488 572.77 133.35 568.74 131.075C564.775 128.735 561.655 125.517 559.38 121.422C557.105 117.327 555.967 112.647 555.967 107.382C555.967 102.052 557.04 97.3725 559.185 93.3425C561.33 89.2475 564.287 86.03 568.057 83.69C571.827 81.35 576.15 80.18 581.025 80.18C585.835 80.18 590.092 81.3175 593.797 83.5925C597.502 85.8025 600.395 88.89 602.475 92.855C604.555 96.755 605.595 101.272 605.595 106.407C605.595 107.252 605.335 107.935 604.815 108.455C604.295 108.91 603.612 109.137 602.767 109.137H559.867V104.067H604.327L600.037 107.285C600.167 103.06 599.452 99.3225 597.892 96.0725C596.332 92.8225 594.09 90.2875 591.165 88.4675C588.305 86.5825 584.925 85.64 581.025 85.64C577.32 85.64 574.005 86.5825 571.08 88.4675C568.22 90.2875 565.945 92.8225 564.255 96.0725C562.63 99.3225 561.817 103.092 561.817 107.382C561.817 111.607 562.695 115.345 564.45 118.595C566.205 121.845 568.642 124.412 571.762 126.297C574.882 128.117 578.457 129.027 582.487 129.027C585.022 129.027 587.557 128.605 590.092 127.76C592.692 126.85 594.74 125.68 596.235 124.25C596.755 123.73 597.372 123.47 598.087 123.47C598.867 123.405 599.517 123.6 600.037 124.055C600.752 124.64 601.11 125.29 601.11 126.005C601.175 126.72 600.882 127.37 600.232 127.955C598.152 129.84 595.422 131.4 592.042 132.635C588.727 133.87 585.542 134.488 582.487 134.488ZM639.367 134.585C635.987 134.585 632.444 133.967 628.739 132.732C625.034 131.497 621.947 129.417 619.477 126.492C618.957 125.842 618.729 125.16 618.794 124.445C618.924 123.665 619.347 123.015 620.062 122.495C620.712 122.04 621.394 121.877 622.109 122.007C622.889 122.137 623.507 122.495 623.962 123.08C625.847 125.29 628.122 126.85 630.787 127.76C633.517 128.605 636.474 129.027 639.659 129.027C645.119 129.027 648.987 128.052 651.262 126.102C653.537 124.152 654.674 121.877 654.674 119.277C654.674 116.742 653.439 114.662 650.969 113.037C648.564 111.347 644.827 110.145 639.757 109.43C633.257 108.52 628.447 106.765 625.327 104.165C622.207 101.565 620.647 98.5425 620.647 95.0975C620.647 91.8475 621.459 89.1175 623.084 86.9075C624.709 84.6325 626.919 82.9425 629.714 81.8375C632.574 80.6675 635.824 80.0825 639.464 80.0825C643.884 80.0825 647.622 80.895 650.677 82.52C653.732 84.08 656.202 86.1925 658.087 88.8575C658.607 89.5075 658.769 90.2225 658.574 91.0025C658.444 91.7175 657.957 92.3025 657.112 92.7575C656.462 93.0825 655.779 93.18 655.064 93.05C654.349 92.92 653.732 92.53 653.212 91.88C651.587 89.8 649.604 88.24 647.264 87.2C644.989 86.095 642.324 85.5425 639.269 85.5425C635.174 85.5425 631.989 86.42 629.714 88.175C627.439 89.93 626.302 92.0425 626.302 94.5125C626.302 96.2025 626.757 97.6975 627.667 98.9975C628.642 100.232 630.202 101.305 632.347 102.215C634.492 103.06 637.352 103.742 640.927 104.262C645.802 104.912 649.637 106.017 652.432 107.577C655.292 109.137 657.307 110.957 658.477 113.037C659.712 115.052 660.329 117.23 660.329 119.57C660.329 122.625 659.354 125.29 657.404 127.565C655.454 129.84 652.887 131.595 649.702 132.83C646.517 134 643.072 134.585 639.367 134.585ZM721.084 156.718C713.869 156.718 707.239 155.515 701.194 153.11C695.149 150.705 689.917 147.293 685.497 142.873C681.077 138.453 677.664 133.22 675.259 127.175C672.854 121.13 671.652 114.5 671.652 107.285C671.652 100.005 672.854 93.3425 675.259 87.2975C677.664 81.2525 681.077 76.02 685.497 71.6C689.917 67.18 695.149 63.7675 701.194 61.3625C707.239 58.9575 713.869 57.755 721.084 57.755C728.364 57.755 735.027 58.9575 741.072 61.3625C747.117 63.7675 752.349 67.18 756.769 71.6C761.189 76.02 764.602 81.2525 767.007 87.2975C769.412 93.3425 770.614 100.005 770.614 107.285C770.614 113.135 769.834 118.335 768.274 122.885C766.714 127.37 764.537 130.912 761.742 133.512C759.012 136.112 755.827 137.413 752.187 137.413C749.067 137.413 746.499 136.405 744.484 134.39C742.469 132.375 741.462 129.807 741.462 126.687V123.567C740.227 125.452 738.504 127.175 736.294 128.735C734.149 130.23 731.744 131.4 729.079 132.245C726.479 133.09 723.814 133.512 721.084 133.512C716.014 133.512 711.497 132.407 707.532 130.197C703.567 127.922 700.447 124.802 698.172 120.837C695.962 116.872 694.857 112.355 694.857 107.285C694.857 102.15 695.962 97.6 698.172 93.635C700.447 89.67 703.567 86.5825 707.532 84.3725C711.497 82.0975 716.014 80.96 721.084 80.96C726.219 80.96 730.737 82.0975 734.637 84.3725C738.602 86.5825 741.689 89.67 743.899 93.635C746.174 97.6 747.312 102.15 747.312 107.285V124.737C747.312 127.207 747.767 128.962 748.677 130.002C749.587 131.042 750.757 131.562 752.187 131.562C754.657 131.562 756.834 130.522 758.719 128.442C760.604 126.362 762.067 123.502 763.107 119.862C764.212 116.222 764.764 112.03 764.764 107.285C764.764 100.915 763.692 95.065 761.547 89.735C759.402 84.405 756.379 79.79 752.479 75.89C748.579 71.99 743.964 68.9675 738.634 66.8225C733.304 64.6775 727.454 63.605 721.084 63.605C714.714 63.605 708.864 64.6775 703.534 66.8225C698.204 68.9675 693.589 71.99 689.689 75.89C685.789 79.79 682.767 84.405 680.622 89.735C678.542 95.065 677.502 100.915 677.502 107.285C677.502 113.655 678.542 119.505 680.622 124.835C682.767 130.165 685.789 134.78 689.689 138.68C693.589 142.58 698.204 145.57 703.534 147.65C708.864 149.795 714.714 150.868 721.084 150.868C724.139 150.868 727.324 150.51 730.639 149.795C734.019 149.08 736.814 148.203 739.024 147.163C740.324 146.513 741.397 146.35 742.242 146.675C743.087 147.065 743.509 147.91 743.509 149.21C743.509 150.25 742.534 151.355 740.584 152.525C738.699 153.695 736.067 154.67 732.687 155.45C729.372 156.295 725.504 156.718 721.084 156.718ZM721.084 127.662C725.049 127.662 728.559 126.785 731.614 125.03C734.669 123.275 737.074 120.87 738.829 117.815C740.584 114.76 741.462 111.25 741.462 107.285C741.462 103.255 740.584 99.7125 738.829 96.6575C737.074 93.6025 734.669 91.1975 731.614 89.4425C728.559 87.6875 725.049 86.81 721.084 86.81C717.119 86.81 713.609 87.6875 710.554 89.4425C707.499 91.1975 705.094 93.6025 703.339 96.6575C701.584 99.7125 700.707 103.255 700.707 107.285C700.707 111.25 701.584 114.76 703.339 117.815C705.094 120.87 707.499 123.275 710.554 125.03C713.609 126.785 717.119 127.662 721.084 127.662ZM789.895 134C789.05 134 788.335 133.74 787.75 133.22C787.23 132.635 786.97 131.92 786.97 131.075V60.7775C786.97 59.9325 787.23 59.25 787.75 58.73C788.335 58.145 789.05 57.8525 789.895 57.8525C790.74 57.8525 791.423 58.145 791.943 58.73C792.528 59.25 792.82 59.9325 792.82 60.7775V92.9525H842.058V60.7775C842.058 59.9325 842.318 59.25 842.838 58.73C843.423 58.145 844.138 57.8525 844.983 57.8525C845.763 57.8525 846.445 58.145 847.03 58.73C847.615 59.25 847.908 59.9325 847.908 60.7775V131.075C847.908 131.92 847.615 132.635 847.03 133.22C846.445 133.74 845.73 134 844.885 134C844.105 134 843.423 133.74 842.838 133.22C842.318 132.635 842.058 131.92 842.058 131.075V98.2175H792.82V131.075C792.82 131.92 792.528 132.635 791.943 133.22C791.423 133.74 790.74 134 789.895 134ZM893.752 134.585C888.552 134.585 883.872 133.415 879.712 131.075C875.617 128.67 872.367 125.42 869.962 121.325C867.622 117.165 866.452 112.517 866.452 107.382C866.452 102.182 867.622 97.535 869.962 93.44C872.367 89.28 875.617 86.03 879.712 83.69C883.872 81.285 888.552 80.0825 893.752 80.0825C898.952 80.0825 903.599 81.285 907.694 83.69C911.789 86.03 915.007 89.28 917.347 93.44C919.752 97.535 920.954 102.182 920.954 107.382C920.954 112.517 919.752 117.165 917.347 121.325C915.007 125.42 911.789 128.67 907.694 131.075C903.599 133.415 898.952 134.585 893.752 134.585ZM893.752 129.125C897.847 129.125 901.487 128.182 904.672 126.297C907.922 124.347 910.457 121.747 912.277 118.497C914.162 115.182 915.104 111.445 915.104 107.285C915.104 103.19 914.162 99.5175 912.277 96.2675C910.457 92.9525 907.922 90.3525 904.672 88.4675C901.487 86.5175 897.847 85.5425 893.752 85.5425C889.722 85.5425 886.082 86.5175 882.832 88.4675C879.582 90.3525 877.014 92.9525 875.129 96.2675C873.244 99.5175 872.302 103.222 872.302 107.382C872.302 111.477 873.244 115.182 875.129 118.497C877.014 121.747 879.582 124.347 882.832 126.297C886.082 128.182 889.722 129.125 893.752 129.125ZM1011.89 134C1011.05 134 1010.33 133.74 1009.75 133.22C1009.23 132.635 1008.97 131.92 1008.97 131.075V102.897C1008.97 97.8925 1007.64 93.7975 1004.97 90.6125C1002.37 87.4275 998.958 85.835 994.733 85.835C990.248 85.835 986.576 87.33 983.716 90.32C980.921 93.245 979.588 97.21 979.718 102.215H973.868C973.998 97.73 974.973 93.83 976.793 90.515C978.613 87.2 981.083 84.6325 984.203 82.8125C987.323 80.9275 990.833 79.985 994.733 79.985C998.698 79.985 1002.18 80.96 1005.17 82.91C1008.16 84.86 1010.5 87.5575 1012.19 91.0025C1013.94 94.4475 1014.82 98.4125 1014.82 102.897V131.075C1014.82 131.92 1014.56 132.635 1014.04 133.22C1013.52 133.74 1012.8 134 1011.89 134ZM941.401 134C940.556 134 939.841 133.74 939.256 133.22C938.736 132.635 938.476 131.92 938.476 131.075V83.5925C938.476 82.6825 938.736 81.9675 939.256 81.4475C939.841 80.9275 940.556 80.6675 941.401 80.6675C942.311 80.6675 943.026 80.9275 943.546 81.4475C944.066 81.9675 944.326 82.6825 944.326 83.5925V131.075C944.326 131.92 944.066 132.635 943.546 133.22C943.026 133.74 942.311 134 941.401 134ZM976.793 134C975.948 134 975.233 133.74 974.648 133.22C974.128 132.635 973.868 131.92 973.868 131.075V102.897C973.868 97.8925 972.536 93.7975 969.871 90.6125C967.271 87.4275 963.858 85.835 959.633 85.835C955.148 85.835 951.476 87.265 948.616 90.125C945.756 92.985 944.326 96.69 944.326 101.24H939.451C939.646 97.08 940.621 93.4075 942.376 90.2225C944.196 87.0375 946.601 84.535 949.591 82.715C952.581 80.895 955.928 79.985 959.633 79.985C963.598 79.985 967.076 80.96 970.066 82.91C973.056 84.86 975.396 87.5575 977.086 91.0025C978.841 94.4475 979.718 98.4125 979.718 102.897V131.075C979.718 131.92 979.458 132.635 978.938 133.22C978.418 133.74 977.703 134 976.793 134ZM1057.93 134.488C1052.79 134.488 1048.21 133.35 1044.18 131.075C1040.21 128.735 1037.09 125.517 1034.82 121.422C1032.54 117.327 1031.41 112.647 1031.41 107.382C1031.41 102.052 1032.48 97.3725 1034.62 93.3425C1036.77 89.2475 1039.73 86.03 1043.5 83.69C1047.27 81.35 1051.59 80.18 1056.46 80.18C1061.27 80.18 1065.53 81.3175 1069.24 83.5925C1072.94 85.8025 1075.83 88.89 1077.91 92.855C1079.99 96.755 1081.03 101.272 1081.03 106.407C1081.03 107.252 1080.77 107.935 1080.25 108.455C1079.73 108.91 1079.05 109.137 1078.21 109.137H1035.31V104.067H1079.77L1075.48 107.285C1075.61 103.06 1074.89 99.3225 1073.33 96.0725C1071.77 92.8225 1069.53 90.2875 1066.6 88.4675C1063.74 86.5825 1060.36 85.64 1056.46 85.64C1052.76 85.64 1049.44 86.5825 1046.52 88.4675C1043.66 90.2875 1041.38 92.8225 1039.69 96.0725C1038.07 99.3225 1037.26 103.092 1037.26 107.382C1037.26 111.607 1038.13 115.345 1039.89 118.595C1041.64 121.845 1044.08 124.412 1047.2 126.297C1050.32 128.117 1053.9 129.027 1057.93 129.027C1060.46 129.027 1063 128.605 1065.53 127.76C1068.13 126.85 1070.18 125.68 1071.67 124.25C1072.19 123.73 1072.81 123.47 1073.53 123.47C1074.31 123.405 1074.96 123.6 1075.48 124.055C1076.19 124.64 1076.55 125.29 1076.55 126.005C1076.61 126.72 1076.32 127.37 1075.67 127.955C1073.59 129.84 1070.86 131.4 1067.48 132.635C1064.17 133.87 1060.98 134.488 1057.93 134.488Z" fill="#5C4435"/>
<path d="M88.5 5L88.5 48.875M88.5 5L173 53.75V151.25M88.5 5L4 53.75V151.25M88.5 48.875L134.975 75.6875M88.5 48.875L42.025 75.6875M88.5 101.164V156.125M88.5 101.164L134.975 75.6875M88.5 101.164L42.025 75.6875M88.5 156.125L134.975 129.312M88.5 156.125L42.025 129.312M173 151.25L88.5 200L4 151.25M173 151.25L134.975 129.312M4 151.25L42.025 129.312M134.975 75.6875V129.312M42.025 129.312V75.6875" stroke="#5C4435" stroke-width="8"/>
<line x1="192.5" y1="5" x2="192.5" y2="200" stroke="#5C4435" stroke-width="3"/>
</svg>
